<svg xmlns="http://www.w3.org/2000/svg" viewBox="68.62 288.7 1062.84 97.69"><defs><style>.cls-1{fill:#fff;stroke-width:0px;}</style></defs><g id="Graphic_Element_copy"><path class="cls-1" d="m1117.54,312.94c-1.14-.11-2.59-.46-3.74-.7-1.11-.24-2.53-2-5.14-2.08-1.8-.06-3.46.39-4.71,1.2-.07-.2-.19-.4-.39-.59-1.41-1.42-3.63.09-5.12.19-.89.06-1.44-.38-1.75-.38-4.82-.09-10.02,6.44-15.26,7.17-4.76.66-5.5-2.04-8.02-2.32-1.54-.17-1.6.75-1.78.81-2.16.74-7.88.24-10.1-.4-3.01-.87-8.53-.2-11.59.73-.78.24-1.39.21-1.34,1.29-1.19,1.06-1.35-1.99-2.44-3.01-1.56-1.45-3.84-1.54-5-2.28-.32-.2-1.39-1.8-1.85-2.39-.11-.14-.06-.7-.38-1.02-.66-.67-9.21-4.63-10.42-4.95-3.95-1.02-12.27-3.11-16.05-3.34-16.61-1.01-18.78,10.65-31.34,15.96-.87.37-4.67,1.94-5.24,1.83-.15-.03-2.33-1.15-2.71-1.35-.27-.14-.4-.61-.53-.67-7.84-3.93-13.71-1.72-22.02-2.43-10.27-.88-18.98-10.09-28.21-13.03-1.29-.41-1.37.05-2.3.1-5.12.32-3.07,1.02-6.06,3.23-.17.13-.89.14-1.34.46-3.52,2.49-5.79,4.16-10.47,3.48-1.69-.25-3.85-1.8-4.62-1.86-.9-.08-1.01.92-.94,1.56-.06-.11-2.09-1.18-2.23-1.21-.86-.17-2.07.03-3.02,0-.1,0-.53-.55-1.36-.42-.67.1-1.29.67-1.83,1.06-3.91,2.77-10.09,10.51-13.63,12.23-1.24.6-4.19,1.04-5.4.46-.09-.04-.74-1.11-1.2-1.42-4.13-2.76-8.42-3.12-12.67-5.51-.67-.37-1.13-1.28-1.76-1.47-1.69-.51-4.71.19-6.59-.08-3.48-.07-6.66,1.07-9.9,1.21-2.46.1-3.91-.73-6.35.11-2.86.99-5.45,4.19-8.11,5.62-1.53.82-3.55,1.09-4.87,2-.73.5-.92,1.31-1.37,1.56-3.54,1.91-12.97,2.08-17.4,3.11-3.24.75-6.21,2.6-9.26,3.26-5.71,1.24-10.03-1.93-16.05-1.51-7.8.55-13.8,6.5-21.73,5.15-2.19-.37-3.09-1.96-4.65-2.62-3.68-1.56-11.7-.23-16.07-.5-1.24-.08-2.43-.8-3.22-.79-.93.01-3.45,1.65-4.94,1.88-5.56.87-10.64-2.79-15.78-4.23-6.29-1.77-17.25-2.76-23.72-2.13-3.13.31-6.61,1.95-9.81,2.31-9.24,1.02-18.42-5.03-26.93-3.89-3.93.52-11.78,4.4-15.46,6.36-2.07,1.1-4.47,3.24-6.48,4.03-5.97,2.33-11.38.3-17.1,5.93-1,.98-2.6,4.01-3.63,4.45-1.24.53-4.02.7-5.24,1.23-.65.28-2.25,1.95-3.78,2.69-7.04,3.41-18.93,7.22-26.62,5.87-8.75-1.53-18.31-2.87-27.2-3.51-1.93-.14-5.86.79-6.39.7-.42-.07-2.35-1.6-3.22-2-9.1-4.18-19.96-6.6-28.43-11.57-8.55-5.02-15.41-13.45-24.51-17.51-1.43-.64-3.07-1.29-3.44.6-.39.07-.76.2-1.11.4-.92-.13-1.2-.99-1.78-1.33-1.71-1-4.28-.22-6.06.21-14.3,3.41-25.47,14.79-39.79,3.42-7.68-6.1-10.23-9.25-20.48-11.84-5.57-1.4-9.53-1.55-15-3.59-4.67-1.74-8.93-1.82-13.36-3.61-3.83-1.54-6.16-3.51-10.36-4.79-.12-.04-.28.03-.4,0-.39-.11-1.34-1.28-2.42-.81-.12-.16-.25-.27-.4-.4-2.17-1.84-7.33-2.05-9.29-3.23-.45-.27-.56-1.36-1.83-1.61-2.54-.49-3.91.65-5.44.8-.44.04-1.31-.47-2.17-.39-4.76.44-10.43,6.12-14.71,8.35-7.57,3.96-16.55,4.42-21.42-3.8-1.55-2.61-2.19-8.03-5.56-8.58-4.52-.73-6.7,2.62-10.41,4.09-6.6,2.61-14.46.78-21.6,2.64-3.55.92-14.7,6-17.02,8.44-2.75,2.9-4.97,7.97-7.73,11.26-6.72,8.03-10.95,7.82-19.25,12.27-8.36,4.48-13.2,12.52-24.06,8.04-3.24-1.34-7.78-5.79-9.9-6.26-15.61-3.45-29.13,8.27-43.53,12.44-11.66,3.37-12.56-.21-21.63-4.65-9-4.4-20.04-7.42-30.11-7.09-7.7,1.35-16.91.32-24.45,1.82-2.46.49-3.82,3.14-4.73,5.58-.17.17-.36.33-.51.52-.28.34-.23.75-.04,1.04,0,0,0,.01,0,.02,0,0,0,0,.01,0,.27.42.82.63,1.23.14.29-.35.6-.67.94-.96,2.15-1.83,5.14-2.15,7.94-2.29.48-.02.96-.05,1.44-.07,3.14.04,6.29.27,7.96.62.14.04.29.07.44.12.77.41,5.76,4.18,6.57,4.82,2.67,2.09,3.7,4.33,7.4,5.53.87.28,3.2.4,3.32.52.35.34-.69,2.09-.23,2.82.12.19,3.27,2.92,3.47,3.02,3.84,1.85,2.33,1.22,5.21,3.68,4.38,3.73,6.65,2.7,11.33,4.43,2.11.78,4.39,3.2,5.75,3.58.82.23,1.53-.15,2.34.02,10.56,2.19,19.57,8.88,29.22,13.24,12.7,5.73,20.48,9.04,34.84,8.03,9.48-.67,10.98-4.05,17.83-8.43,2.21-1.41,4.95-2.17,7.13-3.78,1.39-1.02,2.4-2.59,3.77-3.5,3.2-2.13,8.17-2.56,11.66-4.5,4.41-2.45,8.89-8.16,13.4-11.25,2.61-1.79,6.59-4.09,9.41-5.54,11.07-5.66,22.35-7.52,34.56-8.68,5.88-.56,10.48,1.72,15.94,3.04,1.82.44,5.1.46,6.59,1.09,1.04.44,1.9,3.31,3.32,4.36,4,2.96,13.69,3.62,18.58,3.63.66,0,1.35-.41,2.03-.41,1.3,0,2.34.9,4.01.83,4.14-.18,7.5-4.31,11.53-5.47,4.89-1.4,9.54.31,13.74-1.62,2.28-1.05,4.22-3.33,6.34-4.57,4.64-2.72,5.52-3.12,9.83-6.54,1.13-.9,2.33-1.36,3.23-2.02,2.06-1.51,3.75-3.38,6.06-4.44,1.02.04,1.9.39,2.83.4,1.17,1.38,2.5,1.77,4.04,2.42.25.1.46.28.81.4,2.04.71,3.89.72,5.66,1.21.95.26,1.85.56,2.83.81,1.02.26,2.23.97,3.23,1.21.52.12,1.1.35,1.62.4l2.42,1.21c6.24,7.5,13.99,13.36,24.11,8.96,7.24-3.15,24.33-14.1,29.79-20.03.03,0,.06,0,.09,0,1.72-.49,3.02.43,3.8,1.91.61,1.17,1.22,2.25,2.23,3.13,1.91,1.67,4.34,2.48,6.63,3.45,1.19.5,2.37,1.05,3.43,1.8,1.27.89,2.22,2.13,3.2,3.32,1.95,2.35,4.35,3.97,7.07,5.33,2.69,1.35,5.5,2.5,7.96,4.28.69.5,1.37,1.01,2.07,1.46.05.22.1.41.18.47.22.14.53.17.89.15.32.16.65.32.99.45,1.63.6,3.35.94,4.97,1.58,3.19,1.26,6.08,3.12,8.83,5.15,1.31.96,2.62,1.91,4.12,2.52,1.5.61,3.1.83,4.7,1.01,6.28.72,13.13,3.29,19.42,1.79,1.17-.02,2.34-.09,3.49-.1.61.01,1.21.04,1.82.04,4.1.56,8.14,2.3,12.03,2.71,4.15.44,6.38-1.08,7.36-5.14,1-.14,3.64-1.61,4.8-2.71.04,0,.07.01.11,0,4.97-1.06,9.73-2.92,14.12-5.48.24-.14.35-.34.39-.55.78-.18,1.74-.33,2.51-.66,1.63-.71,6.19-3.37,7.8-5.51,1.83-1.56,4.04-2.63,6.42-3.03,1.47-.25,2.98-.21,4.47-.13,1.4.07,2.93.34,4.32.14.83-.12,1.64-.63,1.93-1.4,2.6.12,5.31-1.3,7.79-.79,2.18.45,3.18,2.87,4.72,3.36,1.59.51,4.04.28,5.69.77,1.37.41,2.56,2.14,3.75,2.13,1.13-.01,3.52-.89,4.98-1.05,2.93-.32,5.78-.27,8.72-.98,2.71-.66,4.61-2.31,7.17-2.93,1.72-.41,3.75-.33,5.45-.61.65-.1,1.12-.74,1.67-.8,1.44-.15,1.84,1.64,2.88,1.95,4.65,1.39,8.67-3.94,12.43-4.37,3.47-.4,5.1,1.72,8.19,2.34,2.22.44,2.74.45,4.95,1.11,3.96,1.2,5.73.65,9.5,1.01,1.73.17,5.45,1.33,6.79,1.13,1.12-.16,2.01-1.68,2.98-2.28,3.93-2.47,10.37-2.49,14.85-4.08,3.63.17,4.94,3.94,7.27,4.85,1.41.55,2.85.25,4.29.56,4.77,1.02,9.16,5.72,14.41,2.73,1.36-.77,1.99-2.37,2.54-2.71,2.12-1.28,8.2,1.8,10.7,1.82,1.07,0,2.2-.67,3.28-.77,2.97-.27,8.63-1.16,11.24-.82,2.56.34,4.66,2.19,6.88,2.81,1.18.33,9.95.48,11.25.3.89-.12,2.78-1.42,4.31-1.76,1.7-.38,3.91-.42,5.68-.58,1.37.92,2.37,2.32,4.28,2.4,1.63.07,3.31-1.49,4.84-1.56,2.92-.14,4.83,1.97,8.48.8,2.74-.87,2.61-3.03,4.48-4.41,2.86-2.1,8.63-3.33,11.44-5.53,1.71-1.34,3.57-5.53,6.48-5.84,1.33-.14,12.08,2.87,14.05,3.52,4.45,1.47,8.6,5.02,13.2,5.38,9.21.71,17.33-3.73,25.27-7.29,1.08-.48,2.95-.93,3.85-1.6.7-.52,1.05-1.76,1.67-1.97.82-.27,2.12.03,3.12-.11,4.19-.62,8.33-1.79,12.25-2.7,2.82-.65,3.76-.46,6.99-1.49,4.91-1.57,6.5,1.77,10.17,2.75.96.25,2.69.14,3.08.36.09.05.64,1.2,1.32,1.71,2.78,2.13,6.45,3.45,9.68,4.46,2.47.77,3.07,3.27,4.83,4.86,5.07,4.58,8.45.13,13.22,2.13,1.53.64,2.5,2.17,4.33,2.08,1.81-.09,5.31-2.16,7.19-2.93.69-.29,1.56-.13,1.93-.28,1.04-1.36,2.16-2.62,3.34-3.79.2.42.7.34,1.51-.25,5.84-5.03,18.46-9.35,26.11-10.05.89-.08,5.83-.21,6.16,0,.39.25.41,2.63.83,3.32,1.62,2.66,19.25-2.1,21.45-.74.48.3.53,1.28,1.59,1.64,1.24.42,2.59,0,3.84.2,1.34.21,2.43,1.35,4.03,1.19,1.76-.18,2.33-2.15,3.68-2.42,1.43-.28,3.86.44,5.66.42,2.7-.04,7.52-.13,10.05-.46,2.35-.31,4.05-2.15,6.08-2.4,3.03-.36,6.28.99,9.31,1.21,9.28.67,14.08-2.33,22.2-5.26,2.3-.83,5.35-1.17,7.5-2.2.93-.45.89-.47,1.2-1.42-2.37-.91-3.34-1.16-5.25-2.83-3.12-2.73-4.71-1.31-8.64-1.67Z"/></g><g id="Graphic_Element"><path class="cls-1" d="m1126.18,314.61c-3.12-2.73-4.71-1.31-8.64-1.67-1.14-.11-2.59-.46-3.74-.7-1.11-.24-2.53-2-5.14-2.08-1.8-.06-3.46.39-4.71,1.2-.07-.2-.19-.4-.39-.59-1.41-1.42-3.63.09-5.12.19-.89.06-1.44-.38-1.75-.38-4.82-.09-10.02,6.44-15.26,7.17-4.76.66-5.5-2.04-8.02-2.32-1.54-.17-1.6.75-1.78.81-2.16.74-7.88.24-10.1-.4-3.01-.87-8.53-.2-11.59.73-.78.24-1.39.21-1.34,1.29-1.19,1.06-1.35-1.99-2.44-3.01-1.56-1.45-3.84-1.54-5-2.28-.32-.2-1.39-1.8-1.85-2.39-.11-.14-.06-.7-.38-1.02-.66-.67-9.21-4.63-10.42-4.95-3.95-1.02-12.27-3.11-16.05-3.34-16.61-1.01-18.78,10.65-31.34,15.96-.87.37-4.67,1.94-5.24,1.83-.15-.03-2.33-1.14-2.71-1.35-.27-.14-.4-.61-.53-.67-7.84-3.93-13.71-1.72-22.02-2.43-10.27-.88-18.98-10.09-28.21-13.03-1.29-.41-1.37.05-2.3.1-5.12.32-3.07,1.02-6.06,3.23-.17.13-.89.14-1.34.46-3.52,2.49-5.79,4.16-10.47,3.48-1.69-.24-3.85-1.8-4.62-1.86-.9-.08-1.01.92-.94,1.56-.06-.11-2.09-1.18-2.23-1.21-.86-.17-2.07.03-3.02,0-.1,0-.53-.55-1.36-.42-.67.1-1.29.67-1.83,1.06-3.91,2.77-10.09,10.51-13.63,12.23-1.24.6-4.19,1.04-5.4.46-.09-.04-.74-1.11-1.2-1.42-4.13-2.76-8.42-3.12-12.67-5.51-.66-.37-1.13-1.28-1.76-1.47-1.69-.51-4.71.2-6.59-.08-3.48-.07-6.66,1.07-9.9,1.21-2.46.1-3.91-.73-6.35.11-2.86.99-5.45,4.19-8.11,5.62-1.53.82-3.55,1.09-4.87,2-.73.5-.92,1.31-1.37,1.56-3.54,1.91-12.97,2.08-17.4,3.11-3.24.75-6.21,2.6-9.26,3.26-5.71,1.24-10.03-1.93-16.05-1.51-7.8.55-13.8,6.5-21.73,5.15-2.19-.37-3.09-1.96-4.65-2.62-3.68-1.56-11.7-.23-16.07-.5-1.24-.08-2.43-.8-3.22-.79-.93.01-3.45,1.65-4.94,1.88-5.56.87-10.64-2.79-15.78-4.23-6.29-1.77-17.25-2.76-23.72-2.13-3.13.31-6.61,1.95-9.81,2.31-9.24,1.02-18.42-5.03-26.93-3.89-3.93.52-11.78,4.4-15.46,6.36-2.07,1.11-4.47,3.24-6.48,4.03-5.97,2.33-11.38.3-17.1,5.93-1,.98-2.6,4.01-3.63,4.45-1.24.53-4.02.7-5.24,1.23-.65.28-2.25,1.95-3.78,2.69-7.04,3.41-18.93,7.22-26.62,5.87-8.75-1.53-18.31-2.87-27.2-3.51-1.93-.14-5.86.79-6.39.7-.42-.07-2.35-1.6-3.22-2-9.1-4.18-19.96-6.6-28.43-11.57-8.55-5.02-15.41-13.45-24.51-17.51-1.43-.64-3.07-1.29-3.44.6-.39.07-.76.2-1.11.4-.92-.13-1.2-.99-1.78-1.33-1.71-1-4.28-.22-6.06.21-14.3,3.41-25.47,14.79-39.79,3.42-7.68-6.1-10.23-9.25-20.48-11.84-5.57-1.4-9.53-1.55-15-3.59-4.67-1.74-8.93-1.82-13.36-3.61-3.83-1.54-6.16-3.51-10.36-4.79-.12-.04-.28.03-.4,0-.39-.11-1.34-1.28-2.42-.81-.12-.16-.25-.27-.4-.4-2.17-1.84-7.33-2.05-9.29-3.23-.45-.27-.56-1.36-1.83-1.61-2.54-.49-3.91.65-5.44.8-.44.04-1.31-.47-2.17-.39-4.76.44-10.43,6.12-14.71,8.35-7.57,3.96-16.55,4.42-21.42-3.8-1.55-2.61-2.19-8.03-5.56-8.58-4.52-.73-6.7,2.62-10.41,4.09-6.6,2.61-14.46.78-21.6,2.64-3.55.92-14.7,6-17.02,8.44-2.75,2.9-4.97,7.97-7.73,11.26-6.72,8.03-10.95,7.82-19.25,12.27-8.36,4.48-13.2,12.52-24.06,8.04-3.24-1.34-7.78-5.79-9.9-6.26-15.61-3.45-29.13,8.27-43.53,12.44-11.66,3.37-12.56-.21-21.63-4.65-9-4.4-20.04-7.42-30.11-7.09-7.7,1.35-16.91.32-24.45,1.82-2.46.49-3.82,3.14-4.73,5.58-.17.17-.36.33-.51.52-.28.34-.23.74-.04,1.04,0,0,0,.01,0,.02,0,0,0,0,.01,0,.27.42.82.63,1.23.14.29-.35.6-.67.94-.96,2.15-1.83,5.14-2.15,7.94-2.29.48-.02.96-.05,1.44-.07,3.14.04,6.29.27,7.96.62.14.04.29.07.43.12.77.41,5.76,4.18,6.57,4.82,2.67,2.09,3.7,4.33,7.4,5.53.87.28,3.2.4,3.32.52.35.34-.69,2.09-.23,2.82.12.19,3.27,2.92,3.47,3.02,3.84,1.85,2.33,1.22,5.21,3.68,4.38,3.73,6.64,2.7,11.33,4.43,2.11.78,4.39,3.2,5.75,3.58.82.23,1.53-.15,2.34.02,10.56,2.19,19.57,8.88,29.22,13.24,12.7,5.73,20.48,9.04,34.84,8.03,9.48-.67,10.98-4.05,17.83-8.43,2.21-1.41,4.95-2.17,7.13-3.78,1.39-1.02,2.4-2.59,3.77-3.5,3.2-2.13,8.17-2.56,11.66-4.5,4.41-2.45,8.89-8.16,13.4-11.25,2.61-1.79,6.59-4.1,9.41-5.54,11.07-5.66,22.35-7.52,34.56-8.68,5.88-.56,10.48,1.72,15.94,3.04,1.82.44,5.1.46,6.59,1.09,1.04.44,1.9,3.31,3.32,4.36,4,2.97,13.69,3.62,18.58,3.63.66,0,1.35-.41,2.03-.41,1.3,0,2.34.9,4.01.83,4.14-.18,7.5-4.31,11.53-5.47,4.89-1.4,9.54.31,13.74-1.62,2.28-1.05,4.22-3.33,6.34-4.57,4.64-2.72,5.52-3.12,9.83-6.54,1.13-.9,2.33-1.36,3.23-2.02,2.06-1.51,3.75-3.38,6.06-4.44,1.02.04,1.9.39,2.83.4,1.17,1.38,2.5,1.77,4.04,2.42.25.1.46.28.81.4,2.04.71,3.89.72,5.66,1.21.95.26,1.85.56,2.83.81,1.02.26,2.22.97,3.23,1.21.52.12,1.1.35,1.62.4l2.42,1.21c6.24,7.5,13.99,13.36,24.11,8.96,7.24-3.15,24.33-14.1,29.79-20.03.03,0,.06,0,.09,0,1.72-.49,3.02.42,3.8,1.91.61,1.17,1.22,2.25,2.23,3.13,1.91,1.67,4.34,2.48,6.63,3.45,1.19.5,2.37,1.05,3.43,1.8,1.27.89,2.22,2.13,3.2,3.32,1.95,2.35,4.35,3.97,7.07,5.33,2.69,1.35,5.5,2.5,7.96,4.28.69.5,1.37,1.01,2.07,1.46.05.22.1.41.18.47.22.14.53.17.89.15.32.16.65.32.99.45,1.63.6,3.35.94,4.97,1.58,3.19,1.26,6.08,3.12,8.83,5.14,1.31.96,2.62,1.91,4.13,2.52,1.5.61,3.1.83,4.7,1.01,6.28.72,13.13,3.29,19.42,1.79,1.17-.02,2.34-.09,3.49-.1.61.01,1.21.04,1.82.04,4.11.56,8.14,2.3,12.03,2.71,4.15.44,6.38-1.08,7.36-5.14,1-.14,3.64-1.61,4.8-2.71.04,0,.07.01.11,0,4.97-1.06,9.73-2.92,14.12-5.48.24-.14.35-.34.39-.55.78-.18,1.74-.32,2.51-.66,1.63-.71,6.19-3.37,7.8-5.51,1.83-1.56,4.04-2.63,6.42-3.03,1.47-.25,2.98-.21,4.47-.13,1.4.07,2.92.34,4.32.14.83-.12,1.64-.63,1.93-1.4,2.6.12,5.31-1.3,7.79-.79,2.18.45,3.18,2.87,4.72,3.36,1.59.51,4.04.28,5.69.77,1.37.41,2.56,2.14,3.75,2.13,1.13-.01,3.52-.89,4.98-1.05,2.93-.32,5.78-.27,8.72-.98,2.71-.66,4.61-2.31,7.17-2.93,1.72-.41,3.75-.33,5.45-.61.65-.1,1.12-.74,1.67-.8,1.44-.15,1.84,1.64,2.88,1.95,4.65,1.39,8.68-3.94,12.43-4.37,3.47-.4,5.1,1.72,8.19,2.34,2.22.44,2.74.45,4.95,1.11,3.96,1.2,5.73.65,9.5,1.01,1.73.17,5.45,1.33,6.79,1.13,1.12-.16,2.01-1.68,2.98-2.28,3.93-2.47,10.37-2.49,14.85-4.08,3.63.17,4.94,3.94,7.27,4.85,1.41.55,2.85.25,4.29.56,4.77,1.02,9.16,5.72,14.41,2.73,1.36-.77,1.99-2.37,2.54-2.71,2.12-1.28,8.2,1.8,10.7,1.82,1.07,0,2.2-.67,3.28-.77,2.97-.27,8.63-1.16,11.24-.82,2.56.34,4.66,2.19,6.88,2.81,1.18.33,9.95.47,11.25.3.89-.12,2.78-1.42,4.31-1.76,1.7-.38,3.91-.42,5.68-.58,1.37.92,2.37,2.32,4.28,2.4,1.63.07,3.31-1.49,4.84-1.56,2.92-.14,4.83,1.97,8.48.8,2.74-.87,2.61-3.03,4.48-4.41,2.86-2.1,8.63-3.33,11.44-5.53,1.71-1.34,3.57-5.53,6.48-5.84,1.33-.14,12.08,2.87,14.05,3.52,4.45,1.47,8.6,5.02,13.2,5.38,9.21.71,17.33-3.73,25.27-7.29,1.08-.48,2.95-.93,3.85-1.6.7-.52,1.05-1.76,1.67-1.97.82-.27,2.12.03,3.12-.11,4.19-.62,8.33-1.79,12.25-2.7,2.82-.65,3.76-.46,6.99-1.49,4.91-1.57,6.5,1.77,10.17,2.75.96.25,2.69.14,3.08.36.09.05.64,1.2,1.32,1.71,2.78,2.13,6.45,3.45,9.68,4.46,2.47.77,3.07,3.27,4.83,4.87,5.07,4.58,8.45.13,13.22,2.13,1.53.64,2.5,2.17,4.33,2.08,1.81-.09,5.31-2.16,7.19-2.93.69-.29,1.56-.13,1.93-.28,1.04-1.36,2.16-2.62,3.34-3.79.2.42.7.34,1.51-.25,5.84-5.03,18.46-9.35,26.11-10.05.89-.08,5.83-.21,6.16,0,.39.25.41,2.63.83,3.32,1.62,2.66,19.25-2.1,21.45-.74.48.3.53,1.28,1.59,1.64,1.24.42,2.59,0,3.84.2,1.34.21,2.43,1.35,4.03,1.18,1.76-.18,2.33-2.15,3.68-2.41,1.43-.28,3.86.44,5.66.42,2.7-.04,7.52-.13,10.05-.46,2.35-.31,4.05-2.15,6.08-2.4,3.03-.36,6.28.99,9.31,1.21,9.28.67,14.08-2.33,22.2-5.26,2.3-.83,5.35-1.17,7.5-2.2.93-.45.89-.47,1.2-1.42-2.37-.91-3.34-1.16-5.25-2.83Z"/></g></svg>